<svg version="1" xmlns="http://www.w3.org/2000/svg" width="933.333" height="933.333" viewBox="0 0 700.000000 700.000000"><path d="M0 164.5V329h6.8c25-.1 61.4-5.9 89.3-14.4 85.7-26 158.7-87.9 198.3-168.1 21-42.4 31.9-84.5 34.2-131.8l.7-14.7H0v164.5z"/><path d="M370.6 15.6c-6.2 145.1-96 272.8-230.6 327.9C99.4 360.2 47.1 371 7.4 371H0v329H329.3l-.7-14.7c-6.8-144.6-106.9-268.1-246.3-303.9l-11.2-2.9 13.8-3.1c15.9-3.6 34.6-9.1 48-14.1 6.4-2.4 10.1-3.3 11.9-2.8 1.5.4 9.4 3.9 17.7 8 53.3 25.9 100.2 65 135.8 113 44 59.4 69.2 130.5 72.3 204.5l.7 16H700V370.7l-14.6.7c-116.3 5.5-219.6 70.4-275.2 172.8-12 22.1-25 55.9-29.7 77.2l-1.8 8-3.3-14.5c-4-17-9.1-34.6-14.1-47.7-4.3-11.7-4.5-10.6 7.5-34.3 17.8-35 37.9-63.2 65.2-91.3 66.9-68.9 154.3-107.9 251.3-112.3l14.7-.6V0H371.3l-.7 15.6zm17.5 88.9c16.9 49.6 42.7 91.2 79.7 128.3 42.5 42.6 99.2 74.3 156.1 87.3l5.5 1.2-15.5 3.4c-8.4 1.9-24.8 6.6-36.4 10.4-18.9 6.3-21.2 6.9-24 5.8-6.9-2.8-35.2-17.3-44.7-23-57.7-34.8-105.2-85-137.1-144.9-7.9-14.9-13.9-29.1-13.4-31.5.3-1.1 2.4-7.2 4.7-13.5 4.7-12.9 10.9-35 13.6-48.3l1.8-8.8 2.8 10.8c1.6 5.9 4.7 16.2 6.9 22.8z"/></svg>